<svg version="1.2" baseProfile="tiny-ps" xmlns="http://www.w3.org/2000/svg" viewBox="0 0 1640 318" width="1640" height="318">
	<title>New Project</title>
	<style>
		tspan { white-space:pre }
	</style>
	<path id="Quotebank." fill="#333333" aria-label="Quotebank."  d="m165.75 36c-60.25 0-106.25 43.75-106.25 100.75c0 53 40.75 96.5 94.25 101l-31.5 17.75c-14 7.75-18.25 11.5-18.25 17.25c0 4 3.5 7 9.25 7c12.75 0 15.75-14.25 33.5-14.25c26 0 52.75 30.5 89.75 30.5c26.25 0 46.25-15.5 46.25-36.25c0-2.75-0.25-6.5-1-10.75h-9.25c-5 13.25-13.5 18.5-29.25 18.5c-28 0-49.75-15-78.25-15c-3.25 0-7.5 0.25-9.75 0.5v-1c6.25-4 11.5-6.75 26.25-12c25-8.75 33.5-12.75 44.5-19.75c30.25-19.5 48-49.5 48-83.75c0-56.25-47.75-100.5-108.25-100.5zm0 187.5c-38.75 0-62.75-33-62.75-86.25c0-52.75 23.75-85 62.75-85c39.5 0 64.75 33 64.75 85c0 52.25-25.5 86.25-64.75 86.25zm235.75-58c0 17.25-2.5 29.25-8 38.25c-5.25 9-12.75 13.5-22.75 13.5c-18.25 0-26.25-14.5-26.25-48v-70.75h-56v10c20 2.25 21.25 3.5 21.25 31v33.75c0 18.25 3.5 31.5 10.75 41.25c9.25 12.5 23.25 19 40.75 19c19.25 0 36-8.25 44.5-22h1l2.75 22.25l49.75-3v-9.75c-16.5 0-19.5-1.5-21.25-10c-1.25-5.5-1.75-16.5-1.75-36.75v-75.75h-56.5v10c20.25 2 21.75 4 21.75 31zm143-69.5c-39.5 0-72.75 28.25-72.75 67.75c0 40.75 33.25 69.75 72.75 69.75c39.75 0 73.75-29.25 73.75-69.75c0-39.25-34-67.75-73.75-67.75zm0 14.5c20.75 0 34.5 21.75 34.5 53.5c0 32.75-13.5 54.25-34.5 54.25c-20.5 0-33.5-21.25-33.5-54.25c0-32 13.25-53.5 33.5-53.5zm107.5 1.75v90.75c0 19.25 13.5 30.5 36.5 30.5c17 0 28.5-6.25 33-17.75l-5.25-7.25c-3.5 6.25-8 9-14.75 9c-10.5 0-14.75-8-14.75-28.5v-76.75h28.75v-13.75h-28.75v-30.25h-12.75c-6.75 14.75-20.5 27-40.25 32.75v11.25zm199 86.75c-13 11.75-27 18.25-41 18.25c-24.25 0-39.5-20.5-39.5-53c0-4 0.25-6.5 1-8.25h80.5c7.75 0 8.25-0.5 8.25-5.75c0-34-20.75-54.25-56-54.25c-42 0-71.75 29.25-71.75 70.5c0 39.75 27.75 67 68.75 67c22.75 0 41.25-8.25 56.75-25.75zm-77.75-57c3.25-18.25 15.75-31.5 30-31.5c12.75 0 22 10.5 22 25c0 5.75-2.25 6.5-15.75 6.5zm152.25 18.5c0-12.25 2-22.5 5.75-30.25c5.75-11.75 16.5-18.5 28.5-18.5c20.25 0 30.5 18.75 30.5 53.25c0 35.5-10.75 54.25-30.5 54.25c-19.75 0-34.25-18.25-34.25-43zm-0.5-137l-56 10v8.5c14.25 2 16.25 3 18.25 8c2.25 6 3.25 16.25 3.25 32.25v148.75h8.5l19-16.75c9.75 11.75 27 19.5 45.25 19.5c35.5 0 65-29.5 65-69.25c0-38.25-27-68.5-62.25-68.5c-17.25 0-31.5 7.25-40 19.75h-1zm198.75 160c0 14.75-12 26.5-28.25 26.5c-8 0-14-6-14-15.75c0-11.75 14.5-21.75 42.25-34.5zm-35.25-21.75c-30.25 12.25-42.25 25-42.25 39.5c0 19 14 32 34.75 32c19.5 0 35.5-9.25 45-26.5h1.25c0 17 8.25 26.75 23.5 26.75c12.25 0 23-5.25 27.5-13.5l-3.75-7.25c-2.75 2.25-5.5 3.25-8.75 3.25c-5.75 0-8.5-7-8.5-21.25v-54.75c0-31.75-14.5-44-52-44c-35 0-52.75 10.25-52.75 26c0 10.25 5.25 16.25 14.5 16.25c9.5 0 14.75-5 17.75-13.25c4.25-12 8.5-16.75 18-16.75c14.25 0 21 8.5 21 27.75v10.5zm157-6c0-10.25 2.5-20.5 5.5-26.5c5.5-10.75 13-17 23.75-17c21.75 0 29 11.75 29 45.75v34c0 24.75-2.5 28-22.25 29v10h78.25v-10c-19.25-1.25-21.25-3.75-21.25-30.75v-35.25c0-21.25-5-32.25-10.75-40c-10.25-13.5-22.25-19-43.5-19c-17.75 0-33.25 8.25-44.25 22h-1l-3.25-22l-48.25 9.5v8.5c15.25 0 19.5 1.75 21.5 10.5c1 4.25 1.75 16.75 1.75 36.25v31.25c0 25-2.75 27.75-22.25 29v10h78.75v-10c-20-1.25-21.75-3.75-21.75-30.75zm207 75.25h77.75v-10c-12 0-18-3.25-25.75-14l-43.25-61.25l24.25-22.75c11.5-10.75 19.75-14.5 32.5-14.5v-10h-68.25v10c16.5 0 21.75 1 21.75 4c0 3.5-6.75 11-24 27.25l-24 22.75v-139l-55.75 9.5v9.25c20.25 0 21.5 2.5 21.5 43.5v106c0 23.75-3.75 28.75-22.25 29.25v10h73.75v-10c-14.25 0-17.25-5.25-17.25-31v-9.75l12.5-12l19 28.5c7 10.25 12 19 12 21c0 2.5-3.75 3.25-14.5 3.25z" />
	<path id="Quotebank." fill="#41d9a4" aria-label="Quotebank."  d="m1542.5 215c0 10.25 8.25 18.5 18.75 18.5c11 0 19.25-8.25 19.25-18.5c0-10.75-8.25-19.25-19.25-19.25c-10.5 0-18.75 8.5-18.75 19.25z" />
</svg>